<?xml version="1.0" encoding="UTF-8"?>
<svg width="839px" height="480px" viewBox="0 0 839 480" version="1.1" xmlns="http://www.w3.org/2000/svg" xmlns:xlink="http://www.w3.org/1999/xlink">
    <title>v3-colored</title>
    <g id="Page-1" stroke="none" stroke-width="1" fill="none" fill-rule="evenodd">
        <g id="layout-3-a" transform="translate(-381.000000, -360.000000)" fill="#221E29" fill-rule="nonzero">
            <g id="v3-colored" transform="translate(381.000000, 360.000000)">
                <g id="Shape-2" transform="translate(0.000000, 0.000000)">
                    <path d="M566.395348,296.296296 L624.307293,296.296296 L655.211543,265.211852 L655.211543,47.4074074 L499.213025,47.4074074 L114.350169,432.592593 L239.953636,432.592593 L566.400661,105.872297 L566.395348,296.296296 Z M791.632534,47.4074074 L702.815751,47.4074074 L702.815751,284.549124 L643.997611,343.703704 L397.565605,343.703704 L308.751783,432.592593 L680.908342,432.592593 L791.632534,321.238519 L791.632534,47.4074074 Z M519.030349,220.322963 L443.118802,296.296296 L519.027976,296.296296 L519.030349,220.322963 Z M7.57272193e-13,480 L479.597905,0 L839,0 L839,340.812769 L702.576542,478.008889 L702.581876,480 L7.57272193e-13,480 Z" id="Shape"></path>
                </g>
            </g>
        </g>
    </g>
</svg>